<svg width="24" height="12" viewBox="0 0 24 12" fill="none" xmlns="http://www.w3.org/2000/svg">
<path fill-rule="evenodd" clip-rule="evenodd" d="M23.7242 5.14799L23.725 5.14888C24.0911 5.51413 24.0922 6.10963 23.7251 6.4761L23.7242 6.47699L18.8256 11.352C18.4587 11.7171 17.865 11.7159 17.4997 11.3488C17.1345 10.9818 17.1359 10.3882 17.5029 10.023L20.7917 6.74999H7.23529V4.87499H20.7918L17.5028 1.60199C17.1358 1.23675 17.1344 0.643168 17.4997 0.276184C17.865 -0.090847 18.4586 -0.0922061 18.8256 0.272997L23.7242 5.14799ZM3 4.87499V6.74999H0.937499C0.419719 6.74999 0 6.33027 0 5.81249C0 5.29471 0.419719 4.87499 0.937499 4.87499H3Z" fill="white"/>
</svg>
